# xmcd
#
# Track frame offsets:
#	150
#	16680
#	37835
#	54042
#	68485
#	85852
#	102802
#	118857
#	131895
#	152635
#	167127
#	183667
#	202705
#	216522
#	238872
#
# Disc length: 3370
#
# Revision: 1
# Processed by: cddbd v1.5.1PL0 Copyright (c) Steve Scherf et al.
# Submitted via: dBpowerAMP V4.0
# Normalized: r0:TRMNUM
#
DISCID=c00d280f
DTITLE=Louisiana Express - Saturday Night Live 99
DYEAR=1900
DGENRE=Misc
TTITLE0=Flip, Flop and Fly
TTITLE1=Unchained Melody
TTITLE2=Proud Mary
TTITLE3=Warm and Tender Love
TTITLE4=Lose A Good Thing
TTITLE5=Sweet Dreams
TTITLE6=Boigie Shoes
TTITLE7=Lonely Nights
TTITLE8=Tell It Like It Is
TTITLE9=Funky Music
TTITLE10=Sugar Coated Love
TTITLE11=Josephine
TTITLE12=Soul Man
TTITLE13=When Something Is Wrong
TTITLE14=Watermelon Man
EXTD=
EXTT0=
EXTT1=
EXTT2=
EXTT3=
EXTT4=
EXTT5=
EXTT6=
EXTT7=
EXTT8=
EXTT9=
EXTT10=
EXTT11=
EXTT12=
EXTT13=
EXTT14=
PLAYORDER=
